<svg width="1200" height="777" viewBox="0 0 1200 777" fill="none" xmlns="http://www.w3.org/2000/svg">
<g clip-path="url(#clip0_121_2)">
<rect width="1200" height="777" fill="white"/>
<path d="M241.5 350C148.5 299 97.1375 327.982 0 287.113V60H1199.9V287.113C1199.9 287.113 1143.12 471.079 895.5 431C789.391 413.825 772.659 452.624 604.5 512C436.341 571.376 334.5 401 241.5 350Z" fill="#D9D9D9"/>
<path d="M241.5 350C148.5 299 97.1375 327.982 0 287.113V60H1199.9V287.113C1199.9 287.113 1143.12 471.079 895.5 431C789.391 413.825 772.659 452.624 604.5 512C436.341 571.376 334.5 401 241.5 350Z" fill="url(#paint0_linear_121_2)"/>
<path d="M250.5 290C157.5 239 97.1375 267.982 0 227.113V0H1208.9V227.113C1208.9 227.113 1152.12 411.079 904.5 371C798.39 353.825 781.659 392.624 613.5 452C445.341 511.376 343.5 341 250.5 290Z" fill="#D9D9D9"/>
<path d="M250.5 290C157.5 239 97.1375 267.982 0 227.113V0H1208.9V227.113C1208.9 227.113 1152.12 411.079 904.5 371C798.39 353.825 781.659 392.624 613.5 452C445.341 511.376 343.5 341 250.5 290Z" fill="url(#paint1_linear_121_2)"/>
</g>
<defs>
<linearGradient id="paint0_linear_121_2" x1="229.5" y1="944" x2="1225.5" y2="13.9995" gradientUnits="userSpaceOnUse">
<stop stop-color="#7D55D1" stop-opacity="0.59"/>
<stop offset="1" stop-color="#3260C8" stop-opacity="0.6"/>
</linearGradient>
<linearGradient id="paint1_linear_121_2" x1="238.5" y1="884" x2="1234.5" y2="-46.0005" gradientUnits="userSpaceOnUse">
<stop stop-color="#724AC8"/>
<stop offset="1" stop-color="#3260C8"/>
</linearGradient>
<clipPath id="clip0_121_2">
<rect width="1200" height="777" fill="white"/>
</clipPath>
</defs>
</svg>
